<svg width="21" height="21" viewBox="0 0 21 21" fill="none" xmlns="http://www.w3.org/2000/svg">
<path d="M20.7992 6.93291L20.7932 6.88071C20.7821 6.81539 20.7622 6.75231 20.7342 6.69364L17.793 1.42303C17.793 1.42303 17.4179 0.90625 17.3288 0.90625H4.79514L1.02577 6.51483L0.981206 6.56651L0.975172 6.5908C0.94333 6.64775 0.917179 6.7084 0.897185 6.77167L0.881866 6.8218C0.838435 6.98224 0.840543 7.15369 0.887901 7.31274L0.905541 7.36907C0.929215 7.43573 0.95846 7.49671 0.992812 7.55097L10.1057 20.4017L10.1243 20.4311C10.1711 20.4983 10.2282 20.5577 10.2979 20.612L10.3508 20.6487C10.4028 20.6849 10.4571 20.7138 10.536 20.7458L10.5875 20.765C10.6767 20.7903 10.7542 20.8022 10.8299 20.8022C10.9064 20.8022 10.9812 20.7908 11.0819 20.7619L11.1437 20.7376C11.204 20.7138 11.2583 20.6844 11.3238 20.6394L11.3646 20.611C11.4347 20.5557 11.4909 20.4957 11.522 20.4487L20.6465 7.58456C20.7272 7.46473 20.7798 7.32443 20.7997 7.17631L20.8066 7.10964L20.8103 7.05693L20.7992 6.93291ZM15.9064 6.5908L17.2053 3.97436L18.5032 6.5908H15.9064ZM15.1275 8.14113H18.2089L13.0729 15.3838L15.1275 8.14113ZM14.3653 5.80633L12.4894 2.97336H15.7713L14.3653 5.80633ZM8.35655 8.14113H13.3045L10.8299 16.8628L8.35655 8.14113ZM8.84722 6.5908L10.8299 3.59556L12.8125 6.5908H8.84722ZM7.45088 5.57172L6.59117 2.97336H9.17077L7.45088 5.57172ZM8.58772 15.3843L3.45126 8.14113H6.53314L8.58772 15.3843ZM5.10384 3.99244L5.96402 6.5908H3.38395L5.10384 3.99244Z" fill="white"/>
</svg>
